<?xml version="1.0" encoding="utf-8"?>
<!-- Svg Vector Icons : http://www.onlinewebfonts.com/icon -->
<!DOCTYPE svg PUBLIC "-//W3C//DTD SVG 1.1//EN" "http://www.w3.org/Graphics/SVG/1.1/DTD/svg11.dtd">
<svg version="1.1" xmlns="http://www.w3.org/2000/svg" xmlns:xlink="http://www.w3.org/1999/xlink" x="0px" y="0px" viewBox="0 0 1000 1000" enable-background="new 0 0 1000 1000" xml:space="preserve">
<metadata> Svg Vector Icons : http://www.onlinewebfonts.com/icon </metadata>
<g><g transform="matrix(1 0 0 -1 0 1008)"><path d="M500,998c96.6,0,179.1-34.2,247.4-102.6C815.8,827.1,850,744.6,850,648c0-58.3-12.6-110.8-37.9-157.5L552.5,18h-105L187.9,490.5C162.6,537.2,150,589.7,150,648c0,96.6,34.2,179.1,102.6,247.4C320.9,963.8,403.4,998,500,998z M500,543c29.2,0,54,10.2,74.4,30.6C594.8,594,605,618.8,605,648c0,29.2-10.2,54-30.6,74.4C554,742.8,529.2,753,500,753s-54-10.2-74.4-30.6C405.2,702,395,677.2,395,648c0-29.2,10.2-54,30.6-74.4C446,553.2,470.8,543,500,543z"/></g></g>
</svg>